<svg xmlns="http://www.w3.org/2000/svg" version="1.1" xmlns:xlink="http://www.w3.org/1999/xlink" viewBox="0 0 19.352574889122174 4.179213041425511"><g transform="matrix(0.6806319327467554,0,0,0.6806319327467554,3.757650815196122,1.7297223862729085)"><g transform="matrix(1,0,0,1,0,0)" clip-path="url(#SvgjsClipPath10005)"><g clip-path="url(#b3dfab761-66e0-463e-8614-133f8c30aef4599621de-cf65-46f1-88bc-57ff74380e6f)"><path d=" M 15.217349338706283 1.378125237861918 L 15.957796949587365 0.6498873139333335 C 15.959195005345284 0.6485078989188527 15.960723546307277 0.6473148913387615 15.962158883552075 0.6459913985545976 C 15.872530652382569 0.5156578602036298 15.824650018945373 0.3611526145460078 15.824869808124372 0.20297548998504433 C 15.824830549119678 0.12843305316146825 15.835425812094353 0.054266212339066255 15.856335383049414 -0.01728353448977482 C 15.892335318801248 0.0575486930550857 15.9393266498238 0.12657486802684026 15.995749503229023 0.18750367293073478 C 15.99561901802495 0.19266715886331753 15.995469892077438 0.19781200405246147 15.995469892077438 0.20297548998504433 C 15.995507173564317 0.37247577007521304 16.06391870198518 0.5251061773531521 16.174942969907434 0.6362609304794774 C 16.28609772303376 0.7472851984017302 16.438746771055136 0.8156967268225944 16.608228410401868 0.8157526490529113 C 16.777710049748595 0.8156967268225944 16.930359097769973 0.7472851984017302 17.0415138508963 0.6362609304794774 C 17.15253811881855 0.5251061773531521 17.220949647239415 0.37247577007521304 17.220986928726294 0.20297548998504433 C 17.220986928726294 0.19812889669092315 17.22083780277878 0.19331958488367984 17.22072595831815 0.18849163233299748 C 17.27724817577896 0.12763930234215193 17.324352327078284 0.05867636187778669 17.360475611879792 -0.01610916765267223 C 17.38115313091062 0.05508060713288809 17.391627935501933 0.12884356600750624 17.39158701267936 0.2029754899850441 C 17.391512449705605 0.6356457859459926 17.040898706362814 0.9862781700322211 16.608228410401868 0.986334092262538 C 16.455356060108485 0.9865517395442066 16.305791513208792 0.9418308185950025 16.17813053703549 0.8577316032773762 C 16.175651318158113 0.8605649962800933 16.173172099280734 0.863417030026249 16.170431909995212 0.8661012970814549 L 15.42998429911413 1.5943392210100393 C 15.401659046101036 1.622275656505288 15.363460079034557 1.6379155983078886 15.323676139281927 1.637865356939935 C 15.262112715485307 1.6378744213156362 15.206655008691046 1.6006579554488125 15.183332019227613 1.5436834576957503 C 15.160009029764181 1.4867089599426877 15.173451149953076 1.4212877708727691 15.217349338706283 1.378125237861918" fill="#574848" transform="matrix(1,0,0,1,0,0)" fill-rule="nonzero"></path></g><g clip-path="url(#b3dfab761-66e0-463e-8614-133f8c30aef4599621de-cf65-46f1-88bc-57ff74380e6f)"><path d=" M 15.880754756954278 -0.08798787435317634 C 15.996271444045313 -0.3765279420443366 16.278399095993482 -0.5803271900621321 16.608228410401868 -0.5803831122924489 C 16.938505102652787 -0.5803271900621321 17.220949647239415 -0.37600600122804667 17.336168082435428 -0.08685078900340171 C 17.306436294983072 -0.012729545578524126 17.265530529505718 0.05640226677040572 17.214872764878326 0.11814146659448554 C 17.184469712329435 -0.10752337347717245 17.03105639382706 -0.2941172153008377 16.824349189832795 -0.37207280436243295 C 16.912016606226068 -0.3063082615098964 16.968740388510724 -0.20154728338312328 16.968740388510724 -0.08351409592783371 C 16.968740388510724 0.024602216017946432 16.92105736679395 0.12155272264380879 16.845674200326926 0.18761551739136817 C 16.919101081223253 0.1567515635821306 16.985824658041242 0.11190197460987206 17.042128995429785 0.055564490870005034 C 17.070129223060114 0.027494174098081747 17.095355225175663 -0.0032127559703155617 17.117456239666488 -0.03612932610607966 C 17.147630559582904 0.02845226654662858 17.165127684841043 0.09822561305521704 17.168997895275126 0.16940351105153606 C 17.026787663579547 0.3150249987964384 16.829661801712888 0.4055258081924318 16.60869442898784 0.4055258081924318 C 16.38774569700623 0.4055258081924318 16.186239260431424 0.3155096581258505 16.048036788575214 0.16903069618275746 C 16.051972385110304 0.09777916009326892 16.069558578790208 0.027946973242695572 16.099839414591994 -0.03666990766580924 C 16.12203698568017 -0.0035541142104668078 16.147388603920945 0.027334781887866755 16.175539473697476 0.05556449087000459 C 16.23095840394141 0.11092749888362008 16.296704306050508 0.15566528313704642 16.36968281661391 0.18664619873254396 C 16.29493343542381 0.12060204472842351 16.247735073036445 0.024061634458217518 16.247735073036445 -0.08351409592783371 C 16.247735073036445 -0.20128631297497823 16.304235166399835 -0.30586088366736214 16.39158569015465 -0.3716440672633376 C 16.253397889051673 -0.31907352646975007 16.138818678756916 -0.21840717505313778 16.068895780483373 -0.088137000300688 L 16.06882121750962 -0.08798787435317634 L 16.06882121750962 -0.08796923360973741 C 16.03449643666722 -0.02394417375594471 16.011937896756898 0.04572023412832682 16.00221784120233 0.1177127294953898 L 16.00152813369509 0.11689253678407685 L 16.00150949295165 0.11706030347502727 C 15.951033780562465 0.05527096026923506 15.910310866015255 -0.013878786569190948 15.880754756954277 -0.08798787435317695 M 16.430954940297664 -0.08351409592783371 C 16.430954940297664 0.014219321922463668 16.51047635180813 0.09374073343292888 16.608228410401868 0.09374073343292888 C 16.7059804689956 0.09374073343292888 16.785520521249506 0.014219321922463668 16.785520521249506 -0.08351409592783371 C 16.785520521249506 -0.18128479526500896 16.7059804689956 -0.26080620677547406 16.608228410401868 -0.26080620677547406 C 16.51047635180813 -0.26080620677547406 16.430954940297664 -0.18128479526500896 16.430954940297664 -0.08351409592783371" fill="#c5b3b3" transform="matrix(1,0,0,1,0,0)" fill-rule="nonzero"></path></g></g><g><path d=" M 0.34875 0.9959999999999999 Q 0.225 0.9269999999999998 0.15375 0.8054999999999999 Q 0.0825 0.6839999999999999 0.0825 0.5324999999999999 Q 0.0825 0.3809999999999999 0.15375 0.25949999999999984 Q 0.225 0.1379999999999999 0.34875 0.06899999999999984 Q 0.47250000000000003 -2.220446049250313e-16 0.627 -2.220446049250313e-16 Q 0.741 -2.220446049250313e-16 0.837 0.03674999999999984 Q 0.933 0.0734999999999999 1.0005 0.14549999999999985 L 0.9525 0.19499999999999984 Q 0.8265 0.0704999999999999 0.63 0.0704999999999999 Q 0.498 0.0704999999999999 0.39 0.13049999999999984 Q 0.28200000000000003 0.1904999999999999 0.2205 0.2962499999999999 Q 0.159 0.4019999999999999 0.159 0.5324999999999999 Q 0.159 0.6629999999999998 0.2205 0.7687499999999998 Q 0.28200000000000003 0.8744999999999998 0.39 0.9344999999999999 Q 0.498 0.9944999999999999 0.63 0.9944999999999999 Q 0.8250000000000001 0.9944999999999999 0.9525 0.8684999999999998 L 1.0005 0.9179999999999999 Q 0.933 0.9899999999999999 0.83625 1.0274999999999999 Q 0.7395 1.065 0.627 1.065 Q 0.47250000000000003 1.065 0.34875 0.9959999999999999 M 1.400983154296875 0.9952499999999999 Q 1.276483154296875 0.9254999999999999 1.205233154296875 0.8039999999999998 Q 1.133983154296875 0.6824999999999999 1.133983154296875 0.5324999999999999 Q 1.133983154296875 0.38249999999999984 1.205233154296875 0.2609999999999999 Q 1.276483154296875 0.13949999999999985 1.400983154296875 0.06974999999999987 Q 1.525483154296875 -2.220446049250313e-16 1.679983154296875 -2.220446049250313e-16 Q 1.834483154296875 -2.220446049250313e-16 1.958983154296875 0.06899999999999984 Q 2.083483154296875 0.1379999999999999 2.154733154296875 0.25949999999999984 Q 2.225983154296875 0.3809999999999999 2.225983154296875 0.5324999999999999 Q 2.225983154296875 0.6839999999999999 2.154733154296875 0.8054999999999999 Q 2.083483154296875 0.9269999999999998 1.958983154296875 0.9959999999999999 Q 1.834483154296875 1.065 1.679983154296875 1.065 Q 1.525483154296875 1.065 1.400983154296875 0.9952499999999999 M 1.918483154296875 0.9344999999999999 Q 2.024983154296875 0.8744999999999998 2.086483154296875 0.7687499999999998 Q 2.147983154296875 0.6629999999999998 2.147983154296875 0.5324999999999999 Q 2.147983154296875 0.4019999999999999 2.086483154296875 0.2962499999999999 Q 2.024983154296875 0.1904999999999999 1.918483154296875 0.13049999999999984 Q 1.811983154296875 0.0704999999999999 1.679983154296875 0.0704999999999999 Q 1.547983154296875 0.0704999999999999 1.440733154296875 0.13049999999999984 Q 1.333483154296875 0.1904999999999999 1.271983154296875 0.2962499999999999 Q 1.210483154296875 0.4019999999999999 1.210483154296875 0.5324999999999999 Q 1.210483154296875 0.6629999999999998 1.271983154296875 0.7687499999999998 Q 1.333483154296875 0.8744999999999998 1.440733154296875 0.9344999999999999 Q 1.547983154296875 0.9944999999999999 1.679983154296875 0.9944999999999999 Q 1.811983154296875 0.9944999999999999 1.918483154296875 0.9344999999999999 M 3.125987548828125 0.7619999999999999 L 2.516987548828125 0.7619999999999999 L 2.383487548828125 1.0574999999999999 L 2.300987548828125 1.0574999999999999 L 2.783987548828125 0.00749999999999984 L 2.860487548828125 0.00749999999999984 L 3.343487548828125 1.0574999999999999 L 3.2609875488281252 1.0574999999999999 L 3.125987548828125 0.7619999999999999 M 3.0974875488281253 0.6974999999999999 L 2.821487548828125 0.09149999999999991 L 2.546987548828125 0.6974999999999999 L 3.0974875488281253 0.6974999999999999 M 3.68474853515625 0.9959999999999999 Q 3.56099853515625 0.9269999999999998 3.48974853515625 0.8054999999999999 Q 3.41849853515625 0.6839999999999999 3.41849853515625 0.5324999999999999 Q 3.41849853515625 0.3809999999999999 3.48974853515625 0.25949999999999984 Q 3.56099853515625 0.1379999999999999 3.68474853515625 0.06899999999999984 Q 3.80849853515625 -2.220446049250313e-16 3.96299853515625 -2.220446049250313e-16 Q 4.07699853515625 -2.220446049250313e-16 4.17299853515625 0.03674999999999984 Q 4.26899853515625 0.0734999999999999 4.33649853515625 0.14549999999999985 L 4.28849853515625 0.19499999999999984 Q 4.16249853515625 0.0704999999999999 3.96599853515625 0.0704999999999999 Q 3.83399853515625 0.0704999999999999 3.72599853515625 0.13049999999999984 Q 3.61799853515625 0.1904999999999999 3.55649853515625 0.2962499999999999 Q 3.49499853515625 0.4019999999999999 3.49499853515625 0.5324999999999999 Q 3.49499853515625 0.6629999999999998 3.55649853515625 0.7687499999999998 Q 3.61799853515625 0.8744999999999998 3.72599853515625 0.9344999999999999 Q 3.83399853515625 0.9944999999999999 3.96599853515625 0.9944999999999999 Q 4.16099853515625 0.9944999999999999 4.28849853515625 0.8684999999999998 L 4.33649853515625 0.9179999999999999 Q 4.26899853515625 0.9899999999999999 4.17224853515625 1.0274999999999999 Q 4.07549853515625 1.065 3.96299853515625 1.065 Q 3.80849853515625 1.065 3.68474853515625 0.9959999999999999 M 5.448003662109375 0.00749999999999984 L 5.448003662109375 1.0574999999999999 L 5.371503662109375 1.0574999999999999 L 5.371503662109375 0.5579999999999998 L 4.669503662109375 0.5579999999999998 L 4.669503662109375 1.0574999999999999 L 4.593003662109375 1.0574999999999999 L 4.593003662109375 0.00749999999999984 L 4.669503662109375 0.00749999999999984 L 4.669503662109375 0.4904999999999998 L 5.371503662109375 0.4904999999999998 L 5.371503662109375 0.00749999999999984 L 5.448003662109375 0.00749999999999984 M 5.81404248046875 0.00749999999999984 L 5.89054248046875 0.00749999999999984 L 5.89054248046875 1.0574999999999999 L 5.81404248046875 1.0574999999999999 L 5.81404248046875 0.00749999999999984 M 7.111516845703125 0.00749999999999984 L 7.111516845703125 1.0574999999999999 L 7.048516845703125 1.0574999999999999 L 6.333016845703125 0.14549999999999985 L 6.333016845703125 1.0574999999999999 L 6.256516845703125 1.0574999999999999 L 6.256516845703125 0.00749999999999984 L 6.321016845703125 0.00749999999999984 L 7.035016845703125 0.9194999999999999 L 7.035016845703125 0.00749999999999984 L 7.111516845703125 0.00749999999999984 M 8.2275556640625 0.5369999999999999 L 8.301055664062499 0.5369999999999999 L 8.301055664062499 0.9299999999999999 Q 8.2320556640625 0.9959999999999999 8.1338056640625 1.0305 Q 8.0355556640625 1.065 7.9260556640625 1.065 Q 7.7700556640625 1.065 7.6448056640625 0.9959999999999999 Q 7.5195556640625 0.9269999999999998 7.4483056640625 0.8054999999999999 Q 7.3770556640625 0.6839999999999999 7.3770556640625 0.5324999999999999 Q 7.3770556640625 0.3809999999999999 7.4483056640625 0.25949999999999984 Q 7.5195556640625 0.1379999999999999 7.6448056640625 0.06899999999999984 Q 7.7700556640625 -2.220446049250313e-16 7.9275556640625 -2.220446049250313e-16 Q 8.0430556640625 -2.220446049250313e-16 8.1398056640625 0.03674999999999984 Q 8.2365556640625 0.0734999999999999 8.3055556640625 0.1439999999999999 L 8.2575556640625 0.19499999999999984 Q 8.1915556640625 0.1289999999999999 8.1098056640625 0.0997499999999999 Q 8.0280556640625 0.0704999999999999 7.9290556640625 0.0704999999999999 Q 7.7940556640625 0.0704999999999999 7.6853056640625 0.13049999999999984 Q 7.5765556640625 0.1904999999999999 7.5150556640625 0.2962499999999999 Q 7.4535556640625 0.4019999999999999 7.4535556640625 0.5324999999999999 Q 7.4535556640625 0.6614999999999999 7.5158056640625 0.7672499999999999 Q 7.5780556640625 0.8729999999999999 7.6860556640625 0.9337499999999999 Q 7.7940556640625 0.9944999999999999 7.9290556640625 0.9944999999999999 Q 8.1090556640625 0.9944999999999999 8.2275556640625 0.8984999999999999 L 8.2275556640625 0.5369999999999999 M 9.099099609375 0.0764999999999999 L 9.099099609375 0.5249999999999999 L 9.658599609375 0.5249999999999999 L 9.658599609375 0.5939999999999999 L 9.099099609375 0.5939999999999999 L 9.099099609375 1.0574999999999999 L 9.022599609375 1.0574999999999999 L 9.022599609375 0.00749999999999984 L 9.724599609375 0.00749999999999984 L 9.724599609375 0.0764999999999999 L 9.099099609375 0.0764999999999999 M 9.96907177734375 0.00749999999999984 L 10.04557177734375 0.00749999999999984 L 10.04557177734375 1.0574999999999999 L 9.96907177734375 1.0574999999999999 L 9.96907177734375 0.00749999999999984 M 11.266546142578125 0.00749999999999984 L 11.266546142578125 1.0574999999999999 L 11.203546142578125 1.0574999999999999 L 10.488046142578124 0.14549999999999985 L 10.488046142578124 1.0574999999999999 L 10.411546142578125 1.0574999999999999 L 10.411546142578125 0.00749999999999984 L 10.476046142578125 0.00749999999999984 L 11.190046142578126 0.9194999999999999 L 11.190046142578126 0.00749999999999984 L 11.266546142578125 0.00749999999999984 M 11.6325849609375 0.00749999999999984 L 12.0480849609375 0.00749999999999984 Q 12.2115849609375 0.00749999999999984 12.3383349609375 0.07499999999999984 Q 12.4650849609375 0.14249999999999985 12.5355849609375 0.2617499999999998 Q 12.6060849609375 0.3809999999999999 12.6060849609375 0.5324999999999999 Q 12.6060849609375 0.6839999999999999 12.5355849609375 0.8032499999999998 Q 12.4650849609375 0.9224999999999999 12.3383349609375 0.9899999999999999 Q 12.2115849609375 1.0574999999999999 12.0480849609375 1.0574999999999999 L 11.6325849609375 1.0574999999999999 L 11.6325849609375 0.00749999999999984 M 12.0420849609375 0.9884999999999999 Q 12.1875849609375 0.9884999999999999 12.2985849609375 0.9307499999999999 Q 12.4095849609375 0.8729999999999999 12.4695849609375 0.7694999999999999 Q 12.5295849609375 0.6659999999999999 12.5295849609375 0.5324999999999999 Q 12.5295849609375 0.3989999999999999 12.4695849609375 0.2954999999999999 Q 12.4095849609375 0.19199999999999984 12.2985849609375 0.13424999999999987 Q 12.1875849609375 0.0764999999999999 12.0420849609375 0.0764999999999999 L 11.7090849609375 0.0764999999999999 L 11.7090849609375 0.9884999999999999 L 12.0420849609375 0.9884999999999999 M 13.596068115234376 0.9884999999999999 L 13.596068115234376 1.0574999999999999 L 12.871568115234375 1.0574999999999999 L 12.871568115234375 0.00749999999999984 L 13.573568115234375 0.00749999999999984 L 13.573568115234375 0.0764999999999999 L 12.948068115234374 0.0764999999999999 L 12.948068115234374 0.4904999999999998 L 13.507568115234376 0.4904999999999998 L 13.507568115234376 0.5579999999999998 L 12.948068115234374 0.5579999999999998 L 12.948068115234374 0.9884999999999999 L 13.596068115234376 0.9884999999999999 M 14.60407763671875 1.0574999999999999 L 14.35357763671875 0.7064999999999999 Q 14.29807763671875 0.7139999999999999 14.25157763671875 0.7139999999999999 L 13.95157763671875 0.7139999999999999 L 13.95157763671875 1.0574999999999999 L 13.87507763671875 1.0574999999999999 L 13.87507763671875 0.00749999999999984 L 14.25157763671875 0.00749999999999984 Q 14.44957763671875 0.00749999999999984 14.56207763671875 0.10124999999999984 Q 14.67457763671875 0.19499999999999984 14.67457763671875 0.3614999999999998 Q 14.67457763671875 0.4859999999999999 14.61082763671875 0.5707499999999999 Q 14.54707763671875 0.6554999999999999 14.42857763671875 0.69 L 14.69107763671875 1.0574999999999999 L 14.60407763671875 1.0574999999999999 M 14.25157763671875 0.6464999999999999 Q 14.41957763671875 0.6464999999999999 14.50807763671875 0.5722499999999999 Q 14.59657763671875 0.4979999999999999 14.59657763671875 0.3614999999999998 Q 14.59657763671875 0.22499999999999987 14.50807763671875 0.15074999999999983 Q 14.41957763671875 0.0764999999999999 14.25157763671875 0.0764999999999999 L 13.95157763671875 0.0764999999999999 L 13.95157763671875 0.6464999999999999 L 14.25157763671875 0.6464999999999999" fill="#574848" fill-rule="nonzero"></path></g><g></g></g><defs><clipPath id="SvgjsClipPath10005"><path d=" M 15.17203369140625 -0.5803653569399353 h 2.219558870170285 v 2.2182307138798705 h -2.219558870170285 Z"></path></clipPath><clipPath id="b3dfab761-66e0-463e-8614-133f8c30aef4599621de-cf65-46f1-88bc-57ff74380e6f"><path d=" M 15.153392947967323 -0.5990052149879375 L 17.41022775611829 -0.5990052149879375 L 17.41022775611829 1.6565061003788628 L 15.153392947967323 1.6565061003788628 Z"></path></clipPath></defs></svg>